<?xml version="1.0" encoding="utf-8"?>
<!-- Generator: Adobe Illustrator 19.0.0, SVG Export Plug-In . SVG Version: 6.00 Build 0)  -->
<svg version="1.1" id="Слой_1" xmlns="http://www.w3.org/2000/svg" xmlns:xlink="http://www.w3.org/1999/xlink" x="0px" y="0px"
	 viewBox="0 0 428.6 91.6" style="enable-background:new 0 0 428.6 91.6;" xml:space="preserve">
<style type="text/css">
	.st0{clip-path:url(#SVGID_2_);fill-rule:evenodd;clip-rule:evenodd;}
	.st1{clip-path:url(#SVGID_2_);fill-rule:evenodd;clip-rule:evenodd;fill:#E7AF23;}
</style>
<g>
	<defs>
		<rect id="SVGID_1_" y="0" width="428.6" height="91.6"/>
	</defs>
	<clipPath id="SVGID_2_">
		<use xlink:href="#SVGID_1_"  style="overflow:visible;"/>
	</clipPath>
	<path class="st0" d="M76.1,73.3c0-10.9,8.3-18.4,18.9-18.4c7.8,0,12.4,4.3,14.9,8.7l-6.5,3.2c-1.5-2.9-4.7-5.2-8.4-5.2
		c-6.4,0-11.1,5-11.1,11.7c0,6.7,4.7,11.7,11.1,11.7c3.7,0,6.9-2.2,8.4-5.2l6.5,3.1c-2.6,4.4-7,8.7-14.9,8.7
		C84.4,91.6,76.1,84.2,76.1,73.3"/>
	<polygon class="st0" points="113.3,91 113.3,55.5 138.5,55.5 138.5,62.1 120.9,62.1 120.9,69.6 138.1,69.6 138.1,76.3 120.9,76.3 
		120.9,84.3 138.5,84.3 138.5,91 	"/>
	<polygon class="st0" points="168.2,91 168.2,62.1 151.4,62.1 151.4,91 143.9,91 143.9,55.5 175.8,55.5 175.8,91 	"/>
	<polygon class="st0" points="190.4,91 190.4,62.1 180,62.1 180,55.5 208.3,55.5 208.3,62.1 198,62.1 198,91 	"/>
	<polygon class="st0" points="212.2,91 212.2,55.5 219.8,55.5 219.8,78.4 236.3,55.5 244.1,55.5 244.1,91 236.5,91 236.5,67.2 
		219.5,91 	"/>
	<polygon class="st0" points="270.3,91 259.5,76.8 256.8,80.1 256.8,91 249.2,91 249.2,55.5 256.8,55.5 256.8,71.3 269.3,55.5 
		278.7,55.5 264.5,72.1 279.6,91 	"/>
	<polygon class="st0" points="106.2,46 92.5,27.9 88.9,32.1 88.9,46 79.3,46 79.3,0.7 88.9,0.7 88.9,21 104.9,0.7 116.8,0.7 
		98.8,22 118,46 	"/>
	<polygon class="st0" points="163.2,46 163.2,0.7 172.8,0.7 172.8,30 193.8,0.7 203.7,0.7 203.7,46 194,46 194,15.7 172.5,46 	"/>
	<path class="st0" d="M209.4,23.4C209.4,9.5,219.9,0,233.5,0c10,0,15.7,5.4,18.9,11.1l-8.3,4.1c-1.9-3.7-6-6.6-10.7-6.6
		c-8.2,0-14.2,6.3-14.2,14.9s6,14.9,14.2,14.9c4.7,0,8.8-2.9,10.7-6.6l8.3,4c-3.3,5.6-9,11.1-18.9,11.1
		C219.9,46.8,209.4,37.3,209.4,23.4"/>
	<polygon class="st0" points="268.4,46 268.4,9.2 255.2,9.2 255.2,0.7 291.3,0.7 291.3,9.2 278.1,9.2 278.1,46 	"/>
	<path class="st0" d="M337.5,38.3c4.5,0,7.2-2.4,8.6-14.4l2.6-23.1h32.2V46h-9.7V9.2h-13.8l-1.8,15.3c-2.2,18.8-9,22.3-18.2,22.3
		V38.3z"/>
	<path class="st0" d="M385.1,38.3c4.5,0,7.2-2.4,8.6-14.4l2.6-23.1h32.2V46h-9.7V9.2h-13.8l-1.8,15.3c-2.2,18.8-9,22.3-18.2,22.3
		V38.3z"/>
	<path class="st0" d="M143.5,0.9h-21.1v45h9.6v-16l0-8.4h0V9.3h10.2c3.8,0,6.6,2.3,6.6,6.1c0,3.7-2.8,6.1-6.6,6.1h-7.4l5.3,8.4h3.4
		c9.7,0,15.1-6.7,15.1-14.5C158.6,7.5,153.3,0.9,143.5,0.9"/>
	<polygon class="st0" points="316.9,0.7 304.8,0.7 287.3,46 298.3,46 301.2,38.4 306.8,38.4 306.8,29.9 303.8,29.9 310.9,10.4 
		317.9,29.9 314.9,29.9 314.9,38.4 320.6,38.4 323.4,46 334.4,46 	"/>
	<polygon class="st1" points="65.9,36.2 52.6,12 52.6,4.5 48.5,4.5 48.5,1.9 44.3,1.9 44.3,0.3 23.4,0.3 23.4,1.9 19.3,1.9 
		19.3,4.5 15.2,4.5 15.2,12 1.8,36.2 0,36.2 0,39.5 1.7,39.5 1.7,46 11.1,46 11.1,41.9 20.5,41.9 21,39.5 9.4,39.5 9.4,36.2 
		21.6,36.2 22.1,33.8 12.6,33.8 23.2,12.4 23.2,12.4 23.2,12.3 26.1,12.3 26.6,9.9 23.2,9.9 23.2,7.2 26.1,7.2 26.1,4.5 41.6,4.5 
		41.6,7.2 44.5,7.2 44.5,9.9 28.5,9.9 28.2,12.3 44.5,12.3 44.5,12.4 55.2,33.8 25.5,33.8 25.2,36.2 58.3,36.2 58.3,39.5 24.7,39.5 
		24.4,41.9 56.6,41.9 56.6,46 66,46 66,39.5 67.7,39.5 67.7,36.2 	"/>
	<path class="st1" d="M56.6,56.9L42.4,89.8H25.3L11.1,56.9l0-7.9H1.7v7.9l14.4,33.5c0.3,0.6,0.9,1,1.6,1h32.4c0.7,0,1.3-0.4,1.6-1
		L66,56.9V49h-9.4L56.6,56.9z"/>
</g>
</svg>
