<svg id="logo" xmlns="http://www.w3.org/2000/svg" xmlns:xlink="http://www.w3.org/1999/xlink" width="199" height="32" viewBox="0 0 199 32">
  <defs>
    <linearGradient id="linear-gradient" x1="0.5" y1="0.249" x2="0.5" y2="0.859" gradientUnits="objectBoundingBox">
      <stop offset="0" stop-color="#e6e6e6"/>
      <stop offset="1" stop-color="#adacac"/>
    </linearGradient>
    <linearGradient id="linear-gradient-2" x1="0.5" y1="0.304" x2="0.5" y2="0.85" gradientUnits="objectBoundingBox">
      <stop offset="0" stop-color="#004eea"/>
      <stop offset="1" stop-color="#0032c8"/>
    </linearGradient>
  </defs>
  <g id="Group_3" data-name="Group 3" transform="translate(11.359)">
    <g id="Group_2" data-name="Group 2">
      <g id="Group_1" data-name="Group 1">
        <path id="Path_1" data-name="Path 1" d="M234.208,269.081,258.732,244.6h10.9l-27.253,27.2a3.856,3.856,0,0,1-5.446,0Z" transform="translate(-234.208 -244.605)" fill="url(#linear-gradient)"/>
      </g>
    </g>
  </g>
  <g id="Group_4" data-name="Group 4" transform="translate(22.261)">
    <path id="Path_2" data-name="Path 2" d="M264.631,269.081,289.156,244.6h10.9l-27.253,27.2a3.856,3.856,0,0,1-5.446,0Z" transform="translate(-264.631 -244.605)" fill="url(#linear-gradient-2)"/>
  </g>
  <path id="Path_3" data-name="Path 3" d="M302.608,244.6h-7.332a.132.132,0,0,0-.093.039l-16.3,16.268a3.881,3.881,0,0,1-5.481,0l-5-4.99a1.387,1.387,0,0,0-.98-.4H257.094L273.4,271.792a3.881,3.881,0,0,0,5.481,0l24.755-24.706A1.453,1.453,0,0,0,302.608,244.6Z" transform="translate(-237.533 -244.605)" fill="#ff1d25"/>
  <g id="Group_5" data-name="Group 5" transform="translate(66.146 9.534)">
    <path id="Path_4" data-name="Path 4" d="M400.215,287.853v3.565H387.094V275.107h12.818v3.565H391.67v2.75h7.261v3.449H391.67v2.982Z" transform="translate(-387.094 -273.732)" fill="#fff"/>
    <path id="Path_5" data-name="Path 5" d="M444.524,278.765h-7.4v12.653H432.57V275.107h11.977Z" transform="translate(-416.274 -273.732)" fill="#fff"/>
    <path id="Path_6" data-name="Path 6" d="M479.641,275.279a7.847,7.847,0,0,1,3.07,3.017,9.206,9.206,0,0,1,0,8.761,7.848,7.848,0,0,1-3.07,3.018,9.017,9.017,0,0,1-4.436,1.084,10.055,10.055,0,0,1-4.074-.793,7.745,7.745,0,0,1-3-2.284l2.919-2.656a5,5,0,0,0,3.922,1.911,3.981,3.981,0,0,0,2.51-.8,4.121,4.121,0,0,0,1.436-2.225H473.01v-3.4h5.86a3.953,3.953,0,0,0-1.424-2.121,4.014,4.014,0,0,0-2.475-.769,5,5,0,0,0-3.922,1.911l-2.919-2.657a7.755,7.755,0,0,1,3-2.284,10.061,10.061,0,0,1,4.074-.792A9.017,9.017,0,0,1,479.641,275.279Z" transform="translate(-439.091 -273.146)" fill="#fff"/>
    <path id="Path_7" data-name="Path 7" d="M552.934,287.76V294.7h-4.226v-3.285h-10.46V294.7H534V287.76h.584q1.448-.023,2.043-1.981a23.538,23.538,0,0,0,.735-5.639l.187-5.033h13.168V287.76Zm-11.954-2.8a7.186,7.186,0,0,1-1,2.8h6.187v-8.994H541.47l-.07,1.771A32,32,0,0,1,540.98,284.964Z" transform="translate(-481.356 -273.732)" fill="#fff"/>
    <path id="Path_8" data-name="Path 8" d="M603.334,285.619a5.865,5.865,0,0,1,2.242,2.284,7.541,7.541,0,0,1,0,6.874,5.862,5.862,0,0,1-2.242,2.284,6.234,6.234,0,0,1-3.14.8,4.722,4.722,0,0,1-3.525-1.328v5.639h-4.436v-17.15h4.226v1.259a4.611,4.611,0,0,1,3.736-1.468A6.235,6.235,0,0,1,603.334,285.619Zm-2.16,7.923a3.618,3.618,0,0,0,0-4.4,2.681,2.681,0,0,0-3.829,0,3.618,3.618,0,0,0,0,4.4,2.681,2.681,0,0,0,3.829,0Z" transform="translate(-518.721 -279.968)" fill="#fff"/>
    <path id="Path_9" data-name="Path 9" d="M645.294,286.248a5.5,5.5,0,0,1,1.658,4.392v7.014H642.82v-1.631q-.957,1.841-3.735,1.841a5.857,5.857,0,0,1-2.545-.513,3.765,3.765,0,0,1-1.623-1.387,3.668,3.668,0,0,1-.549-1.992,3.231,3.231,0,0,1,1.377-2.785,7.33,7.33,0,0,1,4.249-.99h2.522q-.117-2-2.685-2a6.172,6.172,0,0,0-1.844.291,4.918,4.918,0,0,0-1.588.8l-1.494-3.006a8.291,8.291,0,0,1,2.556-1.084,12.173,12.173,0,0,1,3.024-.384A7.153,7.153,0,0,1,645.294,286.248Zm-3.619,8.447a2.075,2.075,0,0,0,.84-1.1v-1.1H640.6q-1.938,0-1.938,1.281a1.125,1.125,0,0,0,.444.932,1.91,1.91,0,0,0,1.214.349A2.461,2.461,0,0,0,641.676,294.7Z" transform="translate(-545.758 -279.968)" fill="#fff"/>
    <path id="Path_10" data-name="Path 10" d="M676.431,276.319h4.413v6.618l5.3-6.618h4.086v12.63h-4.436v-6.641l-5.253,6.641h-4.109Zm3.3-2.156a3.745,3.745,0,0,1-1.085-2.9h2.872a1.925,1.925,0,0,0,.373,1.224,1.4,1.4,0,0,0,1.12.408,1.493,1.493,0,0,0,1.156-.42,1.731,1.731,0,0,0,.385-1.212h2.918a3.641,3.641,0,0,1-1.086,2.9,5.012,5.012,0,0,1-3.35.944A4.874,4.874,0,0,1,679.735,274.164Z" transform="translate(-572.748 -271.263)" fill="#fff"/>
    <path id="Path_11" data-name="Path 11" d="M734.842,294.4a3.116,3.116,0,0,1-1.331,2.668,6.637,6.637,0,0,1-3.922.967h-7.121V285.4h6.794a7.2,7.2,0,0,1,3.84.862,2.715,2.715,0,0,1,1.366,2.423,2.828,2.828,0,0,1-.467,1.608,3.275,3.275,0,0,1-1.331,1.118A2.891,2.891,0,0,1,734.842,294.4Zm-8.405-3.915h2.428q1.541,0,1.541-1.142,0-1.095-1.541-1.1h-2.428ZM730.8,294q0-1.165-1.564-1.165h-2.8v2.33h2.755Q730.8,295.165,730.8,294Z" transform="translate(-602.287 -280.345)" fill="#fff"/>
  </g>
  <g id="Group_7" data-name="Group 7" transform="translate(0 10.911)">
    <g id="Group_6" data-name="Group 6">
      <path id="Path_12" data-name="Path 12" d="M216.59,291.408l-13.549-13.523c-.873-.871-.666-2.771.568-2.771h7.558l13.6,13.571-2.728,2.723A3.856,3.856,0,0,1,216.59,291.408Z" transform="translate(-202.508 -275.114)" fill="#e6e6e6"/>
    </g>
  </g>
  <path id="Path_13" data-name="Path 13" d="M243,291.408l-16.325-16.294h10.9l13.6,13.571-2.728,2.723A3.857,3.857,0,0,1,243,291.408Z" transform="translate(-218.012 -264.203)" fill="#004eea"/>
</svg>
