<svg id="icon_cite" xmlns="http://www.w3.org/2000/svg" width="30.273" height="19.609" viewBox="0 0 30.273 19.609">
  <path id="icon_cite-2" data-name="icon_cite" d="M32.578-60a.8.8,0,0,1-.059.273q-.059.156-.137.352l-5.43,16.563a2.732,2.732,0,0,1-.566,1.191,1.3,1.3,0,0,1-.957.332H19.023a.626.626,0,0,1-.566-.215,1.042,1.042,0,0,1-.137-.566v-.371a1,1,0,0,1,.078-.371l4.063-16.562a2.164,2.164,0,0,1,.605-1.172,1.478,1.478,0,0,1,1-.352H31.6a1.042,1.042,0,0,1,.7.234A.827.827,0,0,1,32.578-60ZM16.563-60a1.148,1.148,0,0,1-.039.273,2.77,2.77,0,0,1-.117.352l-5.43,16.563a3.021,3.021,0,0,1-.605,1.191,1.241,1.241,0,0,1-.918.332H3.047a.683.683,0,0,1-.586-.215A.941.941,0,0,1,2.3-42.07v-.371a1,1,0,0,1,.078-.371l4.1-16.562a2.247,2.247,0,0,1,.586-1.172A1.46,1.46,0,0,1,8.086-60.9h7.5Q16.562-60.9,16.563-60Z" transform="translate(-2.305 60.898)" fill="#4169e1"/>
</svg>
