<svg id="student" xmlns="http://www.w3.org/2000/svg" width="246.631" height="280" viewBox="0 0 246.631 280">
  <path id="Path_17" data-name="Path 17" d="M696.376,1152.053l93.339,33.368a6.3,6.3,0,0,0,4.225,0l93.338-33.368a6.276,6.276,0,0,0,0-11.82l-93.339-33.367a6.3,6.3,0,0,0-4.225,0l-93.339,33.367a6.277,6.277,0,0,0,0,11.82Zm1.684-7.111,93.338-33.367a1.273,1.273,0,0,1,.859,0l93.339,33.367a1.275,1.275,0,0,1,0,2.4l-93.339,33.368a1.262,1.262,0,0,1-.859,0l-93.339-33.368a1.275,1.275,0,0,1,0-2.4Z" transform="translate(-668.512 -1106.501)" fill="#4169e1"/>
  <path id="Path_18" data-name="Path 18" d="M697.574,1163.133v67.2a2.5,2.5,0,0,0,5,0v-67.2a2.5,2.5,0,0,0-5,0Z" transform="translate(-668.512 -1106.501)" fill="#4169e1"/>
  <path id="Path_19" data-name="Path 19" d="M893.619,1325.157c-13.761-15.3-34.38-25.419-61.283-30.07a6.285,6.285,0,0,0-6.157,2.541l-33.313,46.639a1.254,1.254,0,0,1-1.038.534h0a1.255,1.255,0,0,1-1.037-.534l-33.312-46.638a6.307,6.307,0,0,0-6.157-2.543c-26.9,4.652-47.524,14.769-61.285,30.07-13.16,14.633-20.4,34.393-21.521,58.729a2.5,2.5,0,1,0,4.994.23c2.2-47.82,27.933-75.33,78.665-84.1a1.268,1.268,0,0,1,1.234.521l33.314,46.639a6.29,6.29,0,0,0,5.105,2.628h0a6.291,6.291,0,0,0,5.107-2.628l33.312-46.639a1.264,1.264,0,0,1,1.236-.52c50.73,8.771,76.461,36.281,78.663,84.1a2.5,2.5,0,0,0,2.5,2.385q.059,0,.117,0a2.5,2.5,0,0,0,2.382-2.612C914.021,1359.549,906.779,1339.789,893.619,1325.157Z" transform="translate(-668.512 -1106.501)" fill="#4169e1"/>
  <path id="Path_20" data-name="Path 20" d="M745.41,1251.622l-4.335-50.57a2.5,2.5,0,1,0-4.982.427l4.335,50.57a11.884,11.884,0,0,0,5.276,8.92l36.343,24.229a11.907,11.907,0,0,0,6.627,2.006h6.874a11.907,11.907,0,0,0,6.627-2.006l36.343-24.229a11.887,11.887,0,0,0,5.276-8.919l4.335-50.571a2.5,2.5,0,1,0-4.983-.427l-4.334,50.571a6.908,6.908,0,0,1-3.068,5.186L799.4,1281.038a6.922,6.922,0,0,1-3.853,1.166h-6.874a6.928,6.928,0,0,1-3.854-1.166l-36.342-24.229A6.908,6.908,0,0,1,745.41,1251.622Z" transform="translate(-668.512 -1106.501)" fill="#4169e1"/>
  <path id="Path_21" data-name="Path 21" d="M754.78,1195.808a2.5,2.5,0,0,0-3.7,3.364c.637.7,15.825,17.217,35.935,22.63l5.376,1.447-2.491-4.979a62.642,62.642,0,0,1-4.09-11.166,61.628,61.628,0,0,0,14.839,6.4l3.892.972-3.106-14.493a2.5,2.5,0,1,0-4.889,1.047l1.365,6.371a75.728,75.728,0,0,1-14.111-7.44l-4.4-3.039.485,5.321a51.415,51.415,0,0,0,3.3,13.05C767.021,1209.1,754.913,1195.953,754.78,1195.808Z" transform="translate(-668.512 -1106.501)" fill="#4169e1"/>
</svg>
