<svg id="teacher" xmlns="http://www.w3.org/2000/svg" width="211.186" height="263.776" viewBox="0 0 211.186 263.776">
  <path id="Path_1196" data-name="Path 1196" d="M2427.285,1242.767a5.194,5.194,0,0,0-2.3.051,4.984,4.984,0,0,0-3.587,5.687l2.8,16.79-31.619,29.012-32.118-28.994,3.251-16.624a5.168,5.168,0,0,0-1.147-4.33,4.82,4.82,0,0,0-3.855-1.692,5.017,5.017,0,0,0-.814.1c-45.085,9.135-68.938,39.012-70.894,88.8a2.5,2.5,0,1,0,5,.2c1.879-47.807,23.721-75.309,66.807-84.079a.127.127,0,0,1,0,.043l-3.414,17.457a3.513,3.513,0,0,0,1.09,3.269l33.759,30.477a3.485,3.485,0,0,0,4.712-.019l33.221-30.48a3.488,3.488,0,0,0,1.09-3.159l-2.933-17.592v-.009c43.109,8.746,64.978,36.253,66.858,84.092a2.5,2.5,0,0,0,2.5,2.4l.1,0a2.5,2.5,0,0,0,2.4-2.6C2496.223,1281.779,2472.37,1251.9,2427.285,1242.767Z" transform="translate(-2286.995 -1070.391)" fill="#4169e1"/>
  <path id="Path_1197" data-name="Path 1197" d="M2341.145,1163.845a2.5,2.5,0,0,0-2.143,2.812l4.255,31.508a11.965,11.965,0,0,0,5.014,8.82l34.252,24.269a11.914,11.914,0,0,0,6.627,2.007h6.875a11.957,11.957,0,0,0,6.685-2.047l34.183-24.221a11.981,11.981,0,0,0,5.025-8.828l4.256-31.508a2.5,2.5,0,0,0-4.955-.67l-4.265,31.571-.015.131a7,7,0,0,1-2.925,5.216l-34.137,24.189a6.921,6.921,0,0,1-3.852,1.167h-6.875a6.876,6.876,0,0,1-3.794-1.127l-34.207-24.237a7,7,0,0,1-2.914-5.208l-4.278-31.7A2.494,2.494,0,0,0,2341.145,1163.845Z" transform="translate(-2286.995 -1070.391)" fill="#4169e1"/>
  <path id="Path_1198" data-name="Path 1198" d="M2354.731,1143.423c12.927,0,45.588-1.408,61.433-14.905a34.229,34.229,0,0,0,14.037,14.568,2.5,2.5,0,0,0,2.467-4.35c-10.564-5.992-13.124-15.146-13.147-15.227a2.5,2.5,0,0,0-4.277-1.046c-16.047,17.816-65.164,15.891-65.661,15.87a2.525,2.525,0,0,0-2.606,2.389,2.5,2.5,0,0,0,2.387,2.607C2349.747,1143.346,2351.692,1143.423,2354.731,1143.423Z" transform="translate(-2286.995 -1070.391)" fill="#4169e1"/>
  <path id="Path_1199" data-name="Path 1199" d="M2316.012,1210.381l20.091,7.625a2.5,2.5,0,0,0,1.773-4.674l-18.583-7.054c-.607-11.122-2.886-78.423,28-111.84,11.682-12.638,26.921-19.047,45.3-19.047s33.614,6.408,45.3,19.047c30.884,33.416,28.606,100.718,28,111.84l-18.583,7.054a2.5,2.5,0,1,0,1.773,4.674l20.091-7.625a2.5,2.5,0,0,0,1.606-2.14c.254-3.219,5.838-79.257-29.207-117.188-12.667-13.71-29.145-20.662-48.975-20.662s-36.308,6.952-48.976,20.663c-35.046,37.93-29.461,113.969-29.206,117.187A2.5,2.5,0,0,0,2316.012,1210.381Z" transform="translate(-2286.995 -1070.391)" fill="#4169e1"/>
</svg>
