<svg width="64" height="64" viewBox="0 0 64 64" fill="none" xmlns="http://www.w3.org/2000/svg">
<path d="M36.1566 6.99643L49.9929 12.064L63.8861 17.1317H36.1566H8.42706L22.2634 12.064L36.1566 6.99643Z" fill="#FFE34C"/>
<path d="M4.27043 16.1637H59.7295C60.242 16.1637 60.6405 15.8221 60.6975 15.3096C60.7544 14.8541 60.5266 14.3417 60.0711 14.1708L32.3416 4.09254C32.1138 4.0356 31.8861 4.0356 31.6583 4.09254L3.92879 14.2278C3.47327 14.3986 3.18858 14.8541 3.30245 15.3666C3.35939 15.8221 3.81491 16.1637 4.27043 16.1637ZM32 6.14236L54.0355 14.1708H9.96438L32 6.14236Z" fill="#231F20"/>
<path d="M62.9751 53.6868H60.1851V50.5552C60.1851 49.9858 59.7295 49.5303 59.1601 49.5303H57.5089V46.4555C57.5089 45.8861 57.0534 45.4306 56.484 45.4306H55.8577V21.1174H58.363C58.9324 21.1174 59.3879 20.6619 59.3879 20.0925C59.3879 19.5231 58.9324 19.0676 58.363 19.0676H54.8327H49.8221H34.4484H29.4377H14.0641H9.05338H5.52313C4.95374 19.0676 4.49822 19.5231 4.49822 20.0925C4.49822 20.6619 4.95374 21.1174 5.52313 21.1174H8.02847V45.4876H7.40213C6.83274 45.4876 6.37722 45.9431 6.37722 46.5125V49.5872H4.72598C4.15658 49.5872 3.70107 50.0427 3.70107 50.6121V53.7438H1.02491C0.455516 53.7438 0 54.1993 0 54.7687V58.9253C0 59.4947 0.455516 59.9502 1.02491 59.9502H62.9751C63.5445 59.9502 64 59.4947 64 58.9253V54.7118C64 54.1424 63.5445 53.6868 62.9751 53.6868ZM37.1246 49.5303V46.4555C37.1246 45.8861 36.669 45.4306 36.0996 45.4306H35.4733V21.1174H48.8541V45.4876H48.2278C47.6584 45.4876 47.2028 45.9431 47.2028 46.5125V49.5872H37.1246V49.5303ZM16.7972 49.5303V46.4555C16.7972 45.8861 16.3416 45.4306 15.7722 45.4306H15.1459V21.1174H28.5267V45.4876H27.9004C27.331 45.4876 26.8754 45.9431 26.8754 46.5125V49.5872H16.7972V49.5303ZM28.8683 47.4804H29.4947H34.5053H35.1317V49.5303H28.8683V47.4804ZM49.2527 47.4804H49.879H54.8897H55.516V49.5303H49.2527V47.4804ZM53.8648 21.1174V45.4876H50.9039V21.1174H53.8648ZM33.4804 21.1174V45.4876H30.5196V21.1174H33.4804ZM10.1352 21.1174H13.0961V45.4876H10.1352V21.1174ZM8.48398 47.4804H9.11032H14.121H14.7473V49.5303H8.48398V47.4804ZM5.86477 51.5801H7.51601H15.8292H27.9004H36.2135H48.2847H56.5979H58.2491V53.6868H5.86477V51.5801ZM61.9502 57.8434H2.04982V55.7367H4.83986H59.1601H61.9502V57.8434Z" fill="#231F20"/>
</svg>
