<svg width="64" height="55" viewBox="0 0 64 55" fill="none" xmlns="http://www.w3.org/2000/svg">
<path d="M45.6753 35.6104H36.8137V54.8103H45.6753V35.6104Z" fill="#FFE34C"/>
<path d="M55.1933 18.8171C59.5134 18.8171 63.0155 15.315 63.0155 10.9949C63.0155 6.6748 59.5134 3.17267 55.1933 3.17267C50.8732 3.17267 47.371 6.6748 47.371 10.9949C47.371 15.315 50.8732 18.8171 55.1933 18.8171Z" fill="#FFE34C"/>
<path d="M50.9812 13.0735C50.8171 13.0188 50.7077 12.9641 50.5983 12.9094L50.4342 12.8V12.5812L50.5436 11.5419L50.5983 11.1589L50.9265 11.323C50.9812 11.323 51.0359 11.3777 51.0906 11.3777C51.1453 11.3777 51.2 11.4324 51.2547 11.4324C51.3641 11.4871 51.5282 11.5419 51.6376 11.5419C51.747 11.5966 51.9111 11.5966 52.0205 11.6513C52.1299 11.6513 52.2393 11.706 52.3487 11.706C52.4581 11.706 52.5675 11.706 52.6769 11.7607C52.7316 11.7607 52.841 11.7607 52.8957 11.7607C52.9504 11.7607 53.0598 11.7607 53.1145 11.7607C53.2239 11.7607 53.3334 11.7607 53.3881 11.706C53.4975 11.706 53.5522 11.6513 53.6616 11.5966C53.771 11.5419 53.8257 11.4871 53.8804 11.4324C53.9351 11.3777 53.9898 11.323 54.0445 11.2136C54.0992 11.1589 54.0992 11.0495 54.1539 10.9948C54.1539 10.8854 54.1539 10.8307 54.1539 10.7213C54.1539 10.6119 54.1539 10.5572 54.0992 10.4478C54.0445 10.3931 54.0445 10.2837 53.9898 10.229C53.9351 10.1743 53.8804 10.1196 53.8257 10.0649C53.771 10.0102 53.7163 9.95553 53.6069 9.90082C53.5522 9.84612 53.4428 9.79142 53.3881 9.79142C53.3334 9.73672 53.2239 9.73672 53.1145 9.68202C52.9504 9.62732 52.7863 9.57262 52.6222 9.46322C52.4581 9.40852 52.294 9.29911 52.1299 9.24441C51.9658 9.18971 51.8017 9.08031 51.6923 8.97091C51.5829 8.86151 51.4188 8.80681 51.3094 8.64271C51.2 8.5333 51.0906 8.4239 50.9812 8.3145C50.8718 8.2051 50.8171 8.041 50.7077 7.93159C50.653 7.76749 50.5983 7.60339 50.5436 7.43929C50.4889 7.27518 50.4889 7.11108 50.4889 6.94698C50.4889 6.72818 50.4889 6.56407 50.5436 6.34527C50.5983 6.18117 50.653 5.96236 50.7077 5.79826C50.7624 5.63416 50.8718 5.47006 50.9812 5.30595C51.0906 5.14185 51.2 5.03245 51.3641 4.86835C51.5282 4.75894 51.6376 4.64954 51.8017 4.54014C51.9658 4.43074 52.1299 4.37604 52.294 4.32134H52.3487V3.39142V3.11792H52.6222H53.4975H53.771V3.39142V4.26664H53.8804C53.9898 4.26664 54.0445 4.32134 54.1539 4.32134C54.2633 4.32134 54.3727 4.37604 54.4274 4.37604C54.4821 4.37604 54.5915 4.43074 54.6462 4.43074C54.7009 4.43074 54.7556 4.48544 54.865 4.48544L55.0838 4.54014L55.0291 4.75895L54.9197 5.74356L54.865 6.07177L54.5368 5.96236C54.4821 5.96236 54.4274 5.90766 54.318 5.90766C54.2633 5.90766 54.2086 5.85296 54.0992 5.85296C53.9898 5.85296 53.8804 5.79826 53.771 5.79826C53.6616 5.79826 53.5522 5.74356 53.4428 5.74356C53.3881 5.74356 53.2787 5.74356 53.224 5.74356C53.1693 5.74356 53.1145 5.74356 53.0051 5.74356C52.8957 5.74356 52.7863 5.74356 52.6769 5.79826C52.5675 5.85296 52.5128 5.85296 52.4034 5.90766C52.3487 5.96236 52.2393 6.01706 52.1846 6.07177C52.1299 6.12647 52.0752 6.23587 52.0752 6.29057C52.0205 6.34527 52.0205 6.45467 52.0205 6.56407C52.0205 6.67347 52.0205 6.72818 52.0205 6.83758C52.0205 6.94698 52.0752 7.00168 52.0752 7.11108C52.1299 7.16578 52.1299 7.27518 52.1846 7.32988C52.2393 7.38459 52.294 7.43929 52.3487 7.49399C52.4034 7.54869 52.5128 7.60339 52.5675 7.65809C52.6222 7.71279 52.7316 7.71279 52.7863 7.76749C52.8957 7.82219 52.9504 7.82219 53.0598 7.87689C53.224 7.93159 53.3881 7.9863 53.5522 8.0957C53.7163 8.1504 53.8804 8.2598 54.0445 8.3145C54.2086 8.3692 54.318 8.4786 54.4821 8.588C54.6462 8.69741 54.7556 8.80681 54.865 8.91621C54.9744 9.02561 55.0838 9.13501 55.1932 9.24441C55.3026 9.35382 55.3573 9.51792 55.412 9.62732C55.4667 9.79142 55.5214 9.95552 55.5761 10.0649C55.6308 10.229 55.6308 10.3931 55.6308 10.5572C55.6308 10.776 55.6308 10.9401 55.5761 11.1589C55.5214 11.3777 55.4667 11.5418 55.412 11.706C55.3573 11.8701 55.2479 12.0342 55.1385 12.1983C55.0291 12.3624 54.9197 12.4718 54.7556 12.5812C54.5915 12.6906 54.4274 12.8 54.2633 12.9094C54.0992 13.0188 53.8804 13.0735 53.7163 13.1282H53.6616V14.0581V14.3316H53.3881H52.5128H52.2393V14.0581V13.1829H52.1299C51.9658 13.1829 51.8017 13.1282 51.6376 13.1282C51.4735 13.0735 51.3094 13.0735 51.2 13.0188C51.2547 13.1282 51.0906 13.0735 50.9812 13.0735Z" fill="black"/>
<path d="M53.1145 17.6137C57.9829 17.6137 61.9213 13.6752 61.9213 8.80684C61.9213 3.93846 57.9829 0 53.1145 0C48.2461 0 44.3077 3.99316 44.3077 8.86154C44.3077 13.7299 48.2461 17.6137 53.1145 17.6137ZM53.1145 2.02393C56.8889 2.02393 59.9521 5.08718 59.9521 8.86154C59.9521 12.6359 56.8889 15.6991 53.1145 15.6991C49.3402 15.6991 46.2769 12.6359 46.2769 8.86154C46.2769 5.08718 49.3402 2.02393 53.1145 2.02393Z" fill="#231F20"/>
<path d="M11.2684 32.6016C11.4872 32.6016 11.6513 32.5469 11.8154 32.4375L24.8889 23.0837L37.5248 28.3349C37.853 28.4443 38.2359 28.4443 38.5094 28.2255L48.6838 20.1845C49.1214 19.8563 49.1761 19.2546 48.8479 18.817C48.5197 18.3794 47.918 18.3247 47.4804 18.6529L37.7436 26.3657L25.1624 21.1144C24.8342 21.005 24.506 21.005 24.2325 21.2238L10.7214 30.8512C10.2838 31.1794 10.1744 31.7811 10.5026 32.2187C10.6667 32.4922 10.9949 32.6016 11.2684 32.6016Z" fill="#231F20"/>
<path d="M63.0154 51.8017H58.5299V23.9043C58.5299 23.3573 58.0923 22.9197 57.5453 22.9197H48.6838C48.1368 22.9197 47.6991 23.3573 47.6991 23.9043V51.8017H44.4171V33.5316C44.4171 32.9846 43.9795 32.547 43.4325 32.547H34.6256C34.0786 32.547 33.641 32.9846 33.641 33.5316V51.8017H30.359V32.1094C30.359 31.5624 29.9214 31.1248 29.3744 31.1248H20.5128C19.9658 31.1248 19.5282 31.5624 19.5282 32.1094V51.8017H16.2462V37.7436C16.2462 37.1966 15.8085 36.759 15.2615 36.759H6.4547C5.90769 36.759 5.47009 37.1966 5.47009 37.7436V51.8017H0.984615C0.437607 51.8017 0 52.2393 0 52.7864C0 53.3334 0.437607 53.771 0.984615 53.771H6.4547H15.3162H20.5128H29.3744H34.5709H43.4872H48.6838H57.5453H63.0154C63.5624 53.771 64 53.3334 64 52.7864C64 52.2393 63.5077 51.8017 63.0154 51.8017ZM49.6684 24.8342H56.6154V51.8017H49.6684V24.8342ZM35.5556 34.5163H42.5026V51.8017H35.5556V34.5163ZM21.4974 33.0393H28.4444V51.747H21.4974V33.0393ZM7.43932 38.6735H14.3863V51.747H7.43932V38.6735Z" fill="#231F20"/>
</svg>
