<svg width="76" height="76" viewBox="0 0 76 76" fill="none" xmlns="http://www.w3.org/2000/svg">
<g id="shield 1">
<g clip-path="url(#clip0)">
<path id="Vector" d="M40.9051 60.6314C50.3763 60.6314 58.0542 52.9534 58.0542 43.4822C58.0542 34.011 50.3763 26.333 40.9051 26.333C31.4338 26.333 23.7559 34.011 23.7559 43.4822C23.7559 52.9534 31.4338 60.6314 40.9051 60.6314Z" fill="#FFE34C"/>
<path id="Vector_2" d="M33.1269 48.074C32.8458 47.9803 32.5647 47.7928 32.2835 47.6991L31.9087 47.5117L32.0024 47.0432L32.2835 44.7004L32.3772 43.857L33.1269 44.2318C33.2207 44.3255 33.3144 44.3255 33.5018 44.4192C33.5955 44.5129 33.6892 44.5129 33.8766 44.6067C34.1578 44.7004 34.4389 44.7941 34.72 44.8878C35.0012 44.9815 35.2823 45.0752 35.5634 45.0752C35.8446 45.0752 36.032 45.1689 36.3131 45.1689C36.5943 45.1689 36.7817 45.2626 37.0628 45.2626C37.2502 45.2626 37.4377 45.2626 37.5314 45.2626C37.7188 45.2626 37.8125 45.2626 37.9999 45.2626C38.1874 45.2626 38.4685 45.1689 38.6559 45.1689C38.8433 45.0752 39.0308 45.0752 39.2182 44.9815C39.4056 44.8878 39.593 44.7941 39.6867 44.6067C39.7805 44.5129 39.9679 44.3255 40.0616 44.1381C40.1553 43.9507 40.249 43.7633 40.249 43.5758C40.249 43.3884 40.3427 43.201 40.249 43.0136C40.249 42.8261 40.1553 42.6387 40.1553 42.4513C40.0616 42.2639 39.9679 42.0764 39.8742 41.9827C39.7805 41.7953 39.6867 41.7016 39.4993 41.6079C39.4056 41.5142 39.2182 41.4205 39.0308 41.3268C38.8433 41.233 38.6559 41.1393 38.4685 41.0456C38.2811 40.9519 38.0937 40.8582 37.9062 40.8582C37.5314 40.7645 37.1565 40.5771 36.7817 40.3896C36.4068 40.2022 36.032 40.0148 35.6572 39.8274C35.2823 39.6399 35.0012 39.4525 34.6263 39.2651C34.3452 39.0777 34.0641 38.8903 33.7829 38.6091C33.5018 38.4217 33.3144 38.1406 33.0332 37.8594C32.8458 37.5783 32.6584 37.2972 32.471 37.016C32.2835 36.6412 32.1898 36.3601 32.0961 35.9852C32.0024 35.6104 32.0024 35.2355 32.0024 34.9544C32.0024 34.4858 32.0024 34.0173 32.0961 33.6424C32.1898 33.2676 32.2835 32.799 32.471 32.4242C32.6584 32.0493 32.8458 31.6745 33.0332 31.3933C33.3144 31.0185 33.5018 30.7374 33.8766 30.4562C34.1578 30.1751 34.5326 29.9877 34.9075 29.7065C35.2823 29.5191 35.6572 29.3317 36.032 29.238L36.2194 29.1443V27.0826V26.4266H36.8754H38.7496H39.4056V27.0826V28.9568H39.593C39.7805 28.9568 39.9679 29.0506 40.249 29.0506C40.4364 29.1443 40.7176 29.1443 40.905 29.238C41.0924 29.238 41.2798 29.3317 41.3736 29.3317C41.4673 29.3317 41.6547 29.4254 41.8421 29.5191L42.3107 29.7065L42.217 30.1751L41.9358 32.3305L41.8421 33.0801L41.1861 32.8927C41.0924 32.8927 40.905 32.799 40.7176 32.7053C40.6239 32.7053 40.4364 32.6116 40.249 32.6116C39.9679 32.4242 39.6867 32.3305 39.4993 32.3305C39.3119 32.3305 39.0308 32.2367 38.8433 32.2367C38.6559 32.2367 38.5622 32.2367 38.3748 32.2367C38.2811 32.2367 38.0937 32.2367 37.9062 32.2367C37.6251 32.2367 37.4377 32.3305 37.2502 32.3305C37.0628 32.4242 36.8754 32.5179 36.688 32.6116C36.5006 32.7053 36.4068 32.8927 36.2194 32.9864C36.1257 33.1739 36.032 33.2676 35.9383 33.455C35.8446 33.6424 35.8446 33.8298 35.7509 34.0173C35.7509 34.2047 35.7509 34.3921 35.7509 34.6732C35.7509 34.8607 35.8446 35.0481 35.9383 35.2355C36.032 35.4229 36.1257 35.6104 36.2194 35.7041C36.3131 35.7978 36.5006 35.9852 36.5943 36.0789C36.7817 36.1726 36.8754 36.2663 37.0628 36.36C37.2502 36.4538 37.4377 36.5475 37.6251 36.6412C37.8125 36.7349 37.9999 36.8286 38.1874 36.8286C38.5622 36.9223 38.9371 37.1097 39.3119 37.2972C39.6867 37.4846 40.0616 37.672 40.3427 37.8594C40.6239 38.0469 40.9987 38.2343 41.2798 38.4217C41.561 38.6091 41.8421 38.8903 42.1232 39.0777C42.4044 39.2651 42.5918 39.5462 42.7792 39.8274C42.9667 40.1085 43.1541 40.3896 43.3415 40.6708C43.5289 40.9519 43.6226 41.3268 43.7163 41.7016C43.8101 42.0764 43.8101 42.3576 43.8101 42.7324C43.8101 43.201 43.8101 43.5758 43.7163 44.0444C43.6226 44.4192 43.5289 44.8878 43.3415 45.2626C43.1541 45.6375 42.9667 46.0123 42.6855 46.2935C42.4044 46.5746 42.1232 46.9494 41.8421 47.2306C41.561 47.5117 41.1861 47.6991 40.8113 47.9803C40.4364 48.1677 39.9679 48.3551 39.593 48.4488L39.4056 48.5425V50.6042V51.2602H38.7496H36.8754H36.2194V50.6042V48.6362H36.032C35.6572 48.6362 35.376 48.5425 35.0012 48.4488C34.6263 48.3551 34.3452 48.2614 33.9703 48.1677C33.6892 48.2614 33.4081 48.1677 33.1269 48.074Z" fill="black"/>
<g id="Group">
<path id="Vector_3" d="M37.8126 20.0543C27.4106 20.0543 18.9766 28.4884 18.9766 38.8903C18.9766 49.2923 27.4106 57.7263 37.8126 57.7263C48.2145 57.7263 56.6486 49.1986 56.6486 38.8903C56.6486 28.5821 48.2145 20.0543 37.8126 20.0543ZM37.8126 54.3527C29.2848 54.3527 22.2565 47.4181 22.2565 38.7966C22.2565 30.1752 29.2848 23.3342 37.8126 23.3342C46.3403 23.3342 53.3687 30.2689 53.3687 38.8903C53.3687 47.5118 46.3403 54.3527 37.8126 54.3527Z" fill="#231F20"/>
<path id="Vector_4" d="M67.4254 7.30949C66.9568 7.02836 66.3945 6.93465 65.926 7.12207C62.6461 8.43403 59.4599 9.09001 56.3674 9.09001C45.4969 9.09001 39.2182 0.749692 39.2182 0.65598C38.9371 0.187423 38.3748 0 37.9063 0C37.344 0 36.8754 0.281134 36.5943 0.65598C36.5006 0.749692 30.3156 8.9963 19.4451 9.09001C16.3526 9.09001 13.1664 8.43403 9.88653 7.12207C9.41797 6.93465 8.76199 6.93465 8.38714 7.30949C7.91859 7.59063 7.63745 8.1529 7.63745 8.71517V43.0136C7.63745 55.0086 17.0086 70.3773 37.5314 75.9063C37.6251 75.9063 37.8125 76 38 76C38.1874 76 38.2811 76 38.4685 75.9063C58.9913 70.3773 68.3625 55.0086 68.3625 43.0136V8.62146C68.1751 8.05919 67.8939 7.59063 67.4254 7.30949ZM64.8014 42.9199C64.8014 53.603 56.3674 67.2848 37.8125 72.439C19.2577 67.2848 10.8236 53.603 10.8236 42.9199V10.9642C13.7287 11.9014 16.54 12.3699 19.3514 12.3699C28.91 12.3699 35.2823 6.93465 37.8125 4.21702C40.4365 6.93465 46.7151 12.3699 56.2737 12.3699C59.085 12.3699 61.8964 11.9014 64.8014 10.9642V42.9199Z" fill="#231F20"/>
</g>
</g>
</g>
</svg>
