<svg id="Слой_1" xmlns="http://www.w3.org/2000/svg" xmlns:xlink="http://www.w3.org/1999/xlink" viewBox="0 0 428.6 91.6"><style>.st0,.st1{clip-path:url(#SVGID_2_);fill-rule:evenodd;clip-rule:evenodd}.st1{fill:#e7af23}</style><defs><path id="SVGID_1_" d="M0 0h428.6v91.6H0z"/></defs><clipPath id="SVGID_2_"><use xlink:href="#SVGID_1_" overflow="visible"/></clipPath><path class="st0" d="M76.1 73.3c0-10.9 8.3-18.4 18.9-18.4 7.8 0 12.4 4.3 14.9 8.7l-6.5 3.2c-1.5-2.9-4.7-5.2-8.4-5.2-6.4 0-11.1 5-11.1 11.7C83.9 80 88.6 85 95 85c3.7 0 6.9-2.2 8.4-5.2l6.5 3.1c-2.6 4.4-7 8.7-14.9 8.7-10.6 0-18.9-7.4-18.9-18.3M113.3 91V55.5h25.2v6.6h-17.6v7.5h17.2v6.7h-17.2v8h17.6V91zM168.2 91V62.1h-16.8V91h-7.5V55.5h31.9V91zM190.4 91V62.1H180v-6.6h28.3v6.6H198V91zM212.2 91V55.5h7.6v22.9l16.5-22.9h7.8V91h-7.6V67.2l-17 23.8zM270.3 91l-10.8-14.2-2.7 3.3V91h-7.6V55.5h7.6v15.8l12.5-15.8h9.4l-14.2 16.6L279.6 91zM106.2 46L92.5 27.9l-3.6 4.2V46h-9.6V.7h9.6V21l16-20.3h11.9L98.8 22 118 46zM163.2 46V.7h9.6V30l21-29.3h9.9V46H194V15.7L172.5 46zM209.4 23.4C209.4 9.5 219.9 0 233.5 0c10 0 15.7 5.4 18.9 11.1l-8.3 4.1c-1.9-3.7-6-6.6-10.7-6.6-8.2 0-14.2 6.3-14.2 14.9s6 14.9 14.2 14.9c4.7 0 8.8-2.9 10.7-6.6l8.3 4c-3.3 5.6-9 11.1-18.9 11.1-13.6-.1-24.1-9.6-24.1-23.5M268.4 46V9.2h-13.2V.7h36.1v8.5h-13.2V46zM337.5 38.3c4.5 0 7.2-2.4 8.6-14.4L348.7.8h32.2V46h-9.7V9.2h-13.8l-1.8 15.3c-2.2 18.8-9 22.3-18.2 22.3v-8.5zM385.1 38.3c4.5 0 7.2-2.4 8.6-14.4L396.3.8h32.2V46h-9.7V9.2H405l-1.8 15.3c-2.2 18.8-9 22.3-18.2 22.3v-8.5zM143.5.9h-21.1v45h9.6V9.3h10.2c3.8 0 6.6 2.3 6.6 6.1 0 3.7-2.8 6.1-6.6 6.1h-7.4l5.3 8.4h3.4c9.7 0 15.1-6.7 15.1-14.5 0-7.9-5.3-14.5-15.1-14.5M316.9.7h-12.1L287.3 46h11l2.9-7.6h5.6v-8.5h-3l7.1-19.5 7 19.5h-3v8.5h5.7l2.8 7.6h11z"/><path class="st1" d="M65.9 36.2L52.6 12V4.5h-4.1V1.9h-4.2V.3H23.4v1.6h-4.1v2.6h-4.1V12L1.8 36.2H0v3.3h1.7V46h9.4v-4.1h9.4l.5-2.4H9.4v-3.3h12.2l.5-2.4h-9.5l10.6-21.4v-.1h2.9l.5-2.4h-3.4V7.2h2.9V4.5h15.5v2.7h2.9v2.7h-16l-.3 2.4h16.3v.1l10.7 21.4H25.5l-.3 2.4h33.1v3.3H24.7l-.3 2.4h32.2V46H66v-6.5h1.7v-3.3zM56.6 56.9L42.4 89.8H25.3L11.1 56.9V49H1.7v7.9l14.4 33.5c.3.6.9 1 1.6 1h32.4c.7 0 1.3-.4 1.6-1L66 56.9V49h-9.4v7.9z"/></svg>