<svg xmlns="http://www.w3.org/2000/svg" width="24" height="24" viewBox="0 0 24 24"><path data-name="Path 1402" d="M15.933 11.2a1 1 0 0 1 0 1.6l-5.333 4A1 1 0 0 1 9 16V8a1 1 0 0 1 1.6-.8z" fill="#fff"/><g data-name="Path 1401" fill="none"><path d="M12 0A12 12 0 1 1 0 12 12 12 0 0 1 12 0z"/><path d="M12 1C9.062 1 6.3 2.144 4.222 4.222A10.928 10.928 0 0 0 1 12c0 2.938 1.144 5.7 3.222 7.778A10.928 10.928 0 0 0 12 23c2.938 0 5.7-1.144 7.778-3.222A10.928 10.928 0 0 0 23 12c0-2.938-1.144-5.7-3.222-7.778A10.928 10.928 0 0 0 12 1m0-1c6.627 0 12 5.373 12 12s-5.373 12-12 12S0 18.627 0 12 5.373 0 12 0z" fill="#fff"/></g></svg>