<svg xmlns="http://www.w3.org/2000/svg" width="198.701" height="32" viewBox="0 0 198.701 32"><defs><linearGradient id="a" x1=".5" y1=".249" x2=".5" y2=".859" gradientUnits="objectBoundingBox"><stop offset="0" stop-color="#e6e6e6"/><stop offset="1" stop-color="#adacac"/></linearGradient><linearGradient id="b" x1=".5" y1=".304" x2=".5" y2=".85" gradientUnits="objectBoundingBox"><stop offset="0" stop-color="#004eea"/><stop offset="1" stop-color="#0032c8"/></linearGradient></defs><path data-name="Path 1" d="M234.208 269.081l24.524-24.481h10.9l-27.253 27.2a3.856 3.856 0 0 1-5.446 0z" transform="translate(-222.849 -244.605)" fill="url(#a)"/><path data-name="Path 2" d="M264.631 269.081l24.525-24.481h10.9l-27.253 27.2a3.856 3.856 0 0 1-5.446 0z" transform="translate(-242.37 -244.605)" fill="url(#b)"/><path data-name="Path 3" d="M65.075-.005h-7.332a.132.132 0 0 0-.093.039l-16.3 16.268a3.881 3.881 0 0 1-5.481 0l-5-4.99a1.387 1.387 0 0 0-.98-.4H19.561l16.306 16.275a3.881 3.881 0 0 0 5.481 0L66.103 2.481a1.453 1.453 0 0 0-1.028-2.486z" fill="#ff1d25"/><g data-name="Group 5"><path data-name="Path 4" d="M79.267 23.655v3.565H66.146V10.909h12.818v3.565h-8.242v2.75h7.261v3.449h-7.261v2.982z"/><path data-name="Path 5" d="M94.396 14.567h-7.4V27.22h-4.554V10.909h11.977z"/><path data-name="Path 6" d="M106.696 11.667a7.847 7.847 0 0 1 3.07 3.017 9.206 9.206 0 0 1 0 8.761 7.848 7.848 0 0 1-3.07 3.018 9.017 9.017 0 0 1-4.436 1.084 10.055 10.055 0 0 1-4.074-.793 7.745 7.745 0 0 1-3-2.284l2.919-2.656a5 5 0 0 0 3.922 1.911 3.981 3.981 0 0 0 2.51-.8 4.121 4.121 0 0 0 1.436-2.225h-5.908v-3.4h5.86a3.953 3.953 0 0 0-1.424-2.121 4.014 4.014 0 0 0-2.475-.769 5 5 0 0 0-3.922 1.911l-2.919-2.657a7.755 7.755 0 0 1 3-2.284 10.061 10.061 0 0 1 4.074-.792 9.017 9.017 0 0 1 4.437 1.079z"/><path data-name="Path 7" d="M137.724 23.562v6.94h-4.226v-3.285h-10.46v3.285h-4.248v-6.94h.584q1.448-.023 2.043-1.981a23.538 23.538 0 0 0 .735-5.639l.187-5.033h13.168v12.653zm-11.954-2.8a7.186 7.186 0 0 1-1 2.8h6.187v-8.994h-4.697l-.07 1.771a32 32 0 0 1-.42 4.427z"/><path data-name="Path 8" d="M150.759 15.185a5.865 5.865 0 0 1 2.242 2.284 7.541 7.541 0 0 1 0 6.874 5.862 5.862 0 0 1-2.242 2.284 6.234 6.234 0 0 1-3.14.8 4.722 4.722 0 0 1-3.525-1.328v5.639h-4.436v-17.15h4.226v1.259a4.611 4.611 0 0 1 3.736-1.468 6.235 6.235 0 0 1 3.139.806zm-2.16 7.923a3.618 3.618 0 0 0 0-4.4 2.681 2.681 0 0 0-3.829 0 3.618 3.618 0 0 0 0 4.4 2.681 2.681 0 0 0 3.829 0z"/><path data-name="Path 9" d="M165.682 15.814a5.5 5.5 0 0 1 1.658 4.392v7.014h-4.132v-1.631q-.957 1.841-3.735 1.841a5.857 5.857 0 0 1-2.545-.513 3.765 3.765 0 0 1-1.623-1.387 3.668 3.668 0 0 1-.549-1.992 3.231 3.231 0 0 1 1.377-2.785 7.33 7.33 0 0 1 4.249-.99h2.522q-.117-2-2.685-2a6.172 6.172 0 0 0-1.844.291 4.918 4.918 0 0 0-1.588.8l-1.494-3.006a8.291 8.291 0 0 1 2.556-1.084 12.173 12.173 0 0 1 3.024-.384 7.153 7.153 0 0 1 4.809 1.434zm-3.619 8.447a2.075 2.075 0 0 0 .84-1.1v-1.1h-1.915q-1.938 0-1.938 1.281a1.125 1.125 0 0 0 .444.932 1.91 1.91 0 0 0 1.214.349 2.461 2.461 0 0 0 1.356-.357z"/><path data-name="Path 10" d="M169.829 14.59h4.413v6.618l5.3-6.618h4.086v12.63h-4.436v-6.641l-5.253 6.641h-4.109zm3.3-2.156a3.745 3.745 0 0 1-1.085-2.9h2.872a1.925 1.925 0 0 0 .373 1.224 1.4 1.4 0 0 0 1.12.408 1.493 1.493 0 0 0 1.156-.42 1.731 1.731 0 0 0 .385-1.212h2.918a3.641 3.641 0 0 1-1.086 2.9 5.012 5.012 0 0 1-3.35.944 4.874 4.874 0 0 1-3.299-.943z"/><path data-name="Path 11" d="M198.701 23.589a3.116 3.116 0 0 1-1.331 2.668 6.637 6.637 0 0 1-3.922.967h-7.121V14.589h6.794a7.2 7.2 0 0 1 3.84.862 2.715 2.715 0 0 1 1.366 2.423 2.828 2.828 0 0 1-.467 1.608 3.275 3.275 0 0 1-1.331 1.118 2.891 2.891 0 0 1 2.172 2.989zm-8.405-3.915h2.428q1.541 0 1.541-1.142 0-1.095-1.541-1.1h-2.428zm4.363 3.515q0-1.165-1.564-1.165h-2.8v2.33h2.755q1.609 0 1.609-1.165z"/></g><path data-name="Path 12" d="M14.082 27.205L.533 13.682c-.873-.871-.666-2.771.568-2.771h7.558l13.6 13.571-2.728 2.723a3.856 3.856 0 0 1-5.449 0z" fill="#e6e6e6"/><path data-name="Path 13" d="M24.988 27.205L8.663 10.911h10.9l13.6 13.571-2.728 2.723a3.857 3.857 0 0 1-5.447 0z" fill="#004eea"/></svg>