<svg xmlns="http://www.w3.org/2000/svg" width="246.631" height="280" viewBox="0 0 246.631 280"><path data-name="Path 17" d="M27.864 45.552l93.339 33.368a6.3 6.3 0 0 0 4.225 0l93.338-33.368a6.276 6.276 0 0 0 0-11.82L125.427.365a6.3 6.3 0 0 0-4.225 0L27.863 33.732a6.277 6.277 0 0 0 0 11.82zm1.684-7.111l93.338-33.367a1.273 1.273 0 0 1 .859 0l93.339 33.367a1.275 1.275 0 0 1 0 2.4l-93.339 33.368a1.262 1.262 0 0 1-.859 0L29.547 40.841a1.275 1.275 0 0 1 0-2.4z" fill="#4169e1"/><path data-name="Path 18" d="M29.062 56.632v67.2a2.5 2.5 0 0 0 5 0v-67.2a2.5 2.5 0 0 0-5 0z" fill="#4169e1"/><path data-name="Path 19" d="M225.107 218.656c-13.761-15.3-34.38-25.419-61.283-30.07a6.285 6.285 0 0 0-6.157 2.541l-33.313 46.639a1.254 1.254 0 0 1-1.038.534 1.255 1.255 0 0 1-1.037-.534l-33.312-46.638a6.307 6.307 0 0 0-6.157-2.543c-26.9 4.652-47.524 14.769-61.285 30.07-13.16 14.633-20.4 34.393-21.521 58.729a2.5 2.5 0 1 0 4.994.23c2.2-47.82 27.933-75.33 78.665-84.1a1.268 1.268 0 0 1 1.234.521l33.314 46.639a6.29 6.29 0 0 0 5.105 2.628 6.291 6.291 0 0 0 5.107-2.628l33.312-46.639a1.264 1.264 0 0 1 1.236-.52c50.73 8.771 76.461 36.281 78.663 84.1a2.5 2.5 0 0 0 2.5 2.385h.117a2.5 2.5 0 0 0 2.382-2.612c-1.124-24.34-8.366-44.1-21.526-58.732z" fill="#4169e1"/><path data-name="Path 20" d="M76.898 145.121l-4.335-50.57a2.5 2.5 0 1 0-4.982.427l4.335 50.57a11.884 11.884 0 0 0 5.276 8.92l36.343 24.229a11.907 11.907 0 0 0 6.627 2.006h6.874a11.907 11.907 0 0 0 6.627-2.006l36.343-24.229a11.887 11.887 0 0 0 5.276-8.919l4.335-50.571a2.5 2.5 0 1 0-4.983-.427l-4.334 50.571a6.908 6.908 0 0 1-3.068 5.186l-36.344 24.229a6.922 6.922 0 0 1-3.853 1.166h-6.874a6.928 6.928 0 0 1-3.854-1.166l-36.342-24.229a6.908 6.908 0 0 1-3.067-5.187z" fill="#4169e1"/><path data-name="Path 21" d="M86.268 89.307a2.5 2.5 0 0 0-3.7 3.364c.637.7 15.825 17.217 35.935 22.63l5.376 1.447-2.491-4.979a62.642 62.642 0 0 1-4.09-11.166 61.628 61.628 0 0 0 14.839 6.4l3.892.972-3.106-14.493a2.5 2.5 0 1 0-4.889 1.047l1.365 6.371a75.728 75.728 0 0 1-14.111-7.44l-4.4-3.039.485 5.321a51.415 51.415 0 0 0 3.3 13.05c-16.164-6.193-28.272-19.34-28.405-19.485z" fill="#4169e1"/></svg>