<svg xmlns="http://www.w3.org/2000/svg" width="211.186" height="263.776" viewBox="0 0 211.186 263.776"><path data-name="Path 1196" d="M140.29 172.376a5.194 5.194 0 0 0-2.3.051 4.984 4.984 0 0 0-3.587 5.687l2.8 16.79-31.619 29.012-32.118-28.994 3.251-16.624a5.168 5.168 0 0 0-1.147-4.33 4.82 4.82 0 0 0-3.855-1.692 5.017 5.017 0 0 0-.814.1c-45.085 9.135-68.938 39.012-70.894 88.8a2.502 2.502 0 1 0 5 .2c1.879-47.807 23.721-75.309 66.807-84.079a.127.127 0 0 1 0 .043L68.4 194.797a3.513 3.513 0 0 0 1.09 3.269l33.759 30.477a3.485 3.485 0 0 0 4.712-.019l33.221-30.48a3.488 3.488 0 0 0 1.09-3.159l-2.933-17.592v-.009c43.109 8.746 64.978 36.253 66.858 84.092a2.5 2.5 0 0 0 2.5 2.4h.1a2.5 2.5 0 0 0 2.4-2.6c-1.969-49.788-25.822-79.667-70.907-88.8z" fill="#4169e1"/><path data-name="Path 1197" d="M54.15 93.454a2.5 2.5 0 0 0-2.143 2.812l4.255 31.508a11.965 11.965 0 0 0 5.014 8.82l34.252 24.269a11.914 11.914 0 0 0 6.627 2.007h6.875a11.957 11.957 0 0 0 6.685-2.047l34.183-24.221a11.981 11.981 0 0 0 5.025-8.828l4.256-31.508a2.5 2.5 0 0 0-4.955-.67l-4.265 31.571-.015.131a7 7 0 0 1-2.925 5.216l-34.137 24.189a6.921 6.921 0 0 1-3.852 1.167h-6.875a6.876 6.876 0 0 1-3.794-1.127l-34.207-24.237a7 7 0 0 1-2.914-5.208l-4.278-31.7a2.494 2.494 0 0 0-2.812-2.144z" fill="#4169e1"/><path data-name="Path 1198" d="M67.736 73.032c12.927 0 45.588-1.408 61.433-14.905a34.229 34.229 0 0 0 14.037 14.568 2.5 2.5 0 0 0 2.467-4.35c-10.564-5.992-13.124-15.146-13.147-15.227a2.5 2.5 0 0 0-4.277-1.046c-16.047 17.816-65.164 15.891-65.661 15.87a2.525 2.525 0 0 0-2.606 2.389 2.5 2.5 0 0 0 2.387 2.607c.383.017 2.328.094 5.367.094z" fill="#4169e1"/><path data-name="Path 1199" d="M29.017 139.99l20.091 7.625a2.5 2.5 0 0 0 1.773-4.674l-18.583-7.054c-.607-11.122-2.886-78.423 28-111.84C71.98 11.409 87.219 5 105.598 5s33.614 6.408 45.3 19.047c30.884 33.416 28.606 100.718 28 111.84l-18.583 7.054a2.5 2.5 0 1 0 1.773 4.674l20.091-7.625a2.5 2.5 0 0 0 1.606-2.14c.254-3.219 5.838-79.257-29.207-117.188C141.911 6.952 125.433 0 105.603 0S69.295 6.952 56.627 20.663C21.581 58.593 27.166 134.632 27.421 137.85a2.5 2.5 0 0 0 1.596 2.14z" fill="#4169e1"/></svg>